<?xml version="1.0" encoding="utf-8"?>
<!-- Generator: Adobe Illustrator 24.0.3, SVG Export Plug-In . SVG Version: 6.00 Build 0)  -->
<svg version="1.1" id="Layer_1" xmlns="http://www.w3.org/2000/svg" xmlns:xlink="http://www.w3.org/1999/xlink" x="0px" y="0px"
	 viewBox="0 0 182 156" style="enable-background:new 0 0 182 156;" xml:space="preserve">
<style type="text/css">
	.st0{fill:url(#SVGID_1_);}
	.st1{fill:#FFFFFF;}
	.st2{fill:#DADADA;}
</style>
<g>
	
		<linearGradient id="SVGID_1_" gradientUnits="userSpaceOnUse" x1="8.0204" y1="3312.0562" x2="172.7173" y2="3312.0562" gradientTransform="matrix(1 0 0 -1 0 3390)">
		<stop  offset="0" style="stop-color:#2CBCE5"/>
		<stop  offset="0.4942" style="stop-color:#2A74D8"/>
		<stop  offset="1" style="stop-color:#1255D1"/>
	</linearGradient>
	<path class="st0" d="M77.2,151.9l-56-27.3c-8.2-4-13.2-11.3-13.2-19.3V50.6c0-8,5-15.3,13.2-19.3L77.2,4c8.2-4,18.2-4,26.3,0
		l56,27.3c8.2,4,13.2,11.3,13.2,19.3v54.6c0,8-5,15.3-13.2,19.3l-56,27.3C95.5,155.9,85.4,155.9,77.2,151.9z"/>
	<g>
		<path class="st1" d="M45.7,92.4h35.7L50,71.7c-6.7-4.4-8.1-12.6-3.1-18.4l7.7-9.1c4.1-4.9,10.8-7.8,18-7.8h40.6
			c10.4,0,18.7,7.1,18.7,15.8v11.1H95.6l32,20.3c7.1,4.5,8.4,12.9,3.1,18.8l-8.5,9.5c-4.2,4.7-10.7,7.4-17.6,7.4H64.4
			c-10.4,0-18.7-7.1-18.7-15.8V92.4L45.7,92.4z"/>
	</g>
	<path class="st2" d="M63.9,38c-0.2,0.1-0.3,0.1-0.5,0.2l32.2,25.3h11.8L63.9,38z"/>
	<path class="st2" d="M113.4,117.8l-32-25.4h-9.2l40.9,25.5C113.3,117.9,113.4,117.8,113.4,117.8z"/>
</g>
</svg>
